<svg xmlns="http://www.w3.org/2000/svg" viewBox="0 0 612 68.31"><defs><style>.cls-1{fill:#e20172;}</style></defs><title>Prevencion-1</title><g id="Layer_2" data-name="Layer 2"><g id="Layer_1-2" data-name="Layer 1"><g id="Capa_2" data-name="Capa 2"><g id="Layer_1-3" data-name="Layer 1"><path class="cls-1" d="M114.6,35.2h0a10.9,10.9,0,0,0-.5-1.7,17.1,17.1,0,0,0-9.5-10.7,21.5,21.5,0,0,0-8.9-1.6,22.8,22.8,0,0,0-7.8,1.3,19.1,19.1,0,0,0-6.8,4.1,20.8,20.8,0,0,0-4.8,7,25.7,25.7,0,0,0-1.8,10.1,29.5,29.5,0,0,0,2.1,11.9A20.1,20.1,0,0,0,82,63.1,18,18,0,0,0,89.5,67a35.6,35.6,0,0,0,8.6,1.1,26.7,26.7,0,0,0,8.4-1.1,16.6,16.6,0,0,0,5.5-2.6c.8-.6,2.5-2.2,2.5-2.2l-4.9-7.5-.7.5a12,12,0,0,1-2.5,1.6,19.3,19.3,0,0,1-3.2,1.3,17,17,0,0,1-4.1.5c-4,0-7-1.1-8.9-3.4A15.8,15.8,0,0,1,87,46.7h27.7a4.5,4.5,0,0,0,.1-1.3c0-.5.1-1.1.1-1.6V40.9a15.4,15.4,0,0,0-.3-5.7M87,39.5a11,11,0,0,1,2.3-7.3,7.5,7.5,0,0,1,6.1-2.6c3,0,5.1.8,6.2,2.7a12.8,12.8,0,0,1,1.7,7.2Zm-44.2-17a22.6,22.6,0,0,1-2.1,10.2,17.5,17.5,0,0,1-5.6,6.7A21.7,21.7,0,0,1,27,43.2a43.8,43.8,0,0,1-9.8,1.3H12.4V66.2H0V4.4l8.6-.7c2.9-.2,5.6-.2,7.9-.2,9.1,0,15.7,1.6,19.9,4.8s6.4,8,6.4,14.2m-13,.7c0-3.8-1.1-6.5-3.4-8.1a14.7,14.7,0,0,0-8.7-2.4,46.7,46.7,0,0,0-5.2.3V35.4h3.3c4.5,0,8-.9,10.4-2.7s3.6-5,3.6-9.5m274.5,1.5a15.2,15.2,0,0,0-12.4-2.6V64.9c2.1,1.1,6.2,4.1,12.4,2.6ZM160,22.9c-7.7-3.2-13,.4-13,.4l-1.8,5.8h0l-2.6,9.6-4.2,15.2h0L138,55v-.3l-2.7-9.9h0L130.8,29,129,23.3s-5.4-3.7-13.4-.2l.2.5,15.3,43.9H145l15.4-44.4c0-.1-.2-.1-.4-.2M285.2,54.2h0l-1.4,1.4L281.6,57a13.4,13.4,0,0,1-3,1.2,14.4,14.4,0,0,1-3.7.5,11.9,11.9,0,0,1-5.3-1.1,9.5,9.5,0,0,1-3.5-3.1,12.7,12.7,0,0,1-1.9-4.6,24.7,24.7,0,0,1-.6-5.6,16.7,16.7,0,0,1,2.6-9.6c1.7-2.5,4.7-3.8,8.7-3.8a12.4,12.4,0,0,1,6.4,1.6,16.1,16.1,0,0,1,4.4,3.2h0c2.4-5.7,1.2-9.7.9-10.5l-1.1-.8a16.9,16.9,0,0,0-5.4-2.2,26.6,26.6,0,0,0-7.1-.8,26.1,26.1,0,0,0-6.9,1,19.9,19.9,0,0,0-7.3,3.6,20.7,20.7,0,0,0-5.8,7.1c-1.6,3-2.3,6.8-2.3,11.5s.7,9,2.2,12.1a18.8,18.8,0,0,0,12.9,10.7,32.3,32.3,0,0,0,7.3.9,27.3,27.3,0,0,0,8.3-1.1,20.5,20.5,0,0,0,4.9-2.3,16.6,16.6,0,0,0-1.1-10.7M73,25.3a9.4,9.4,0,0,0-.9-1.2,12,12,0,0,0-1.1-1l-1.4-.6-2.3-.6-1.6-.2h-.8a33.9,33.9,0,0,0-7.1.5,17.8,17.8,0,0,0-7.7,3.6c-4.3,3.3-4.7,9-4.7,10.4v.3h0V63.1h0v3.4H57.8V37.9a5.1,5.1,0,0,1,1.9-4,7.2,7.2,0,0,1,4.8-1.7,8.4,8.4,0,0,1,3.7.7,16.6,16.6,0,0,1,3.2,2l.5-1A18.4,18.4,0,0,0,73,25.3m323.4,5.6a13,13,0,0,0-.3-1.5,11.1,11.1,0,0,0-2.6-4.2,9.4,9.4,0,0,0-1.4-1.2,18.8,18.8,0,0,0-8.3-3.3h-7.7c-16.8,1.4-19.6,10.6-19.6,10.6v35H370V34.5a9.4,9.4,0,0,1,6.1-3.1,6.7,6.7,0,0,1,2.4-.1,8.2,8.2,0,0,1,3.4.7,4.1,4.1,0,0,1,1.9,2,8.3,8.3,0,0,1,.7,3c.1,1.2.1,2.4.1,3.8V66.3H397v-31c-.2-1.1-.4-3.2-.6-4.4m-150.9,0a7.8,7.8,0,0,0-.3-1.4,10,10,0,0,0-2.6-4.2,9.4,9.4,0,0,0-1.4-1.2,19.4,19.4,0,0,0-8.3-3.3c-.7-.1-6.4-.1-7.7,0-16.8,1.4-19.6,10.6-19.6,10.6v35h13.5V34.6a9.4,9.4,0,0,1,6.1-3.1,6.7,6.7,0,0,1,2.4-.1,6.9,6.9,0,0,1,3.4.7,4.1,4.1,0,0,1,1.9,2,8.3,8.3,0,0,1,.7,3c.1,1.2.1,2.4.1,3.8V66.4h12.4v-31c-.2-1.2-.5-3.3-.6-4.5m-45.8,4.3h0a10.9,10.9,0,0,0-.5-1.7,17.1,17.1,0,0,0-9.5-10.7,21.5,21.5,0,0,0-8.9-1.6,22.8,22.8,0,0,0-7.8,1.3,19.1,19.1,0,0,0-6.8,4.1,20.8,20.8,0,0,0-4.8,7,25.7,25.7,0,0,0-1.8,10.1,31.4,31.4,0,0,0,2,11.9,21.1,21.1,0,0,0,5.3,7.5,18,18,0,0,0,7.5,3.9,35.6,35.6,0,0,0,8.6,1.1,26.7,26.7,0,0,0,8.4-1.1,16.6,16.6,0,0,0,5.5-2.6c.8-.6,2.5-2.2,2.5-2.2l-4.9-7.5-.6.5a12,12,0,0,1-2.5,1.6,19.3,19.3,0,0,1-3.2,1.3,17,17,0,0,1-4.1.5c-4.1,0-7-1.1-8.9-3.4a15.8,15.8,0,0,1-3.2-8.5h27.8a4.5,4.5,0,0,0,.1-1.3c0-.5.1-1.1.1-1.6V40.9a15.4,15.4,0,0,0-.3-5.7m-27.6,4.3a11,11,0,0,1,2.3-7.3,7.5,7.5,0,0,1,6.1-2.6c3,0,5.1.8,6.2,2.7a12.8,12.8,0,0,1,1.7,7.2Zm179.1-3.9a20.2,20.2,0,0,0-3.7-7.3l-.8-.9a19,19,0,0,1-2.6,6,11.4,11.4,0,0,1-5.1,4.4,10.5,10.5,0,0,1,.4,1.7,27.4,27.4,0,0,1,.4,5,29.2,29.2,0,0,1-.4,5.1,14.9,14.9,0,0,1-1.4,4.5,8.7,8.7,0,0,1-2.8,3.2,8.3,8.3,0,0,1-4.6,1.2,7.6,7.6,0,0,1-7.3-4.4,12.5,12.5,0,0,1-1.4-4.5,28.1,28.1,0,0,1-.4-5,26.3,26.3,0,0,1,.5-4.9,14.6,14.6,0,0,1,1.5-4.3,8.6,8.6,0,0,1,2.9-3.1h.2a32,32,0,0,0,1.6-3.3c.5-1.4,1.2-3.7,1.7-5.8l.5-1.7a25.4,25.4,0,0,0-9.1,1.8,17.8,17.8,0,0,0-6.9,5.1,21.4,21.4,0,0,0-4.1,7.4,29.3,29.3,0,0,0-1.4,9,32.4,32.4,0,0,0,1.2,8.9,20.8,20.8,0,0,0,3.8,7.4,19.2,19.2,0,0,0,6.7,5.1A23.3,23.3,0,0,0,330.7,68a25.3,25.3,0,0,0,10.1-1.9,17.9,17.9,0,0,0,6.8-5.2,20.5,20.5,0,0,0,3.8-7.5,32.4,32.4,0,0,0,1.2-8.9,41.4,41.4,0,0,0-1.4-8.9Zm-22-2.2c0,.1,0,.1.1.2l.2.2a7.3,7.3,0,0,0,2.3,1h.7c2.7.3,6.4-.1,8.6-3.7s3.5-12.6,6.5-16.7l.6-.8v-.2c0-.2.1-.5-.3-.7s-7.1-3.7-11.5,2.9c-2,3-3.5,12.5-5.4,15.8a3.4,3.4,0,0,1-1.3,1.2l-.3.2c-.2.2-.3.3-.3.5m186.1-32A13.5,13.5,0,0,0,509.9,0h-3.3l-1.5.2V60.6c1.3,2.5,5.4,6.7,12.7,6.8V3.1a15.6,15.6,0,0,0-2.5-1.7Zm94.2,0A13.5,13.5,0,0,0,604.1,0h-3.3l-1.5.2V24.9a15.3,15.3,0,0,0-4-2.8,14.1,14.1,0,0,0-6.9-1.4,19,19,0,0,0-7,1.4,16,16,0,0,0-5.9,4.2,21,21,0,0,0-4.1,7.4,35.2,35.2,0,0,0-1.5,11,33.5,33.5,0,0,0,1.5,10.8,18.9,18.9,0,0,0,4,7,14.8,14.8,0,0,0,5.7,3.7,21.4,21.4,0,0,0,6.7,1.1,17.2,17.2,0,0,0,8-1.7,19,19,0,0,0,4.1-2.9c1.7,2.3,5.7,4.6,12.1,4.7V3.1a15.6,15.6,0,0,0-2.5-1.7Zm-10,52.8a3.5,3.5,0,0,1-1.9,3.2,9.5,9.5,0,0,1-4.6,1.1,10,10,0,0,1-4.8-1,8.3,8.3,0,0,1-3-2.9,14,14,0,0,1-1.6-4.5,35.1,35.1,0,0,1-.5-5.9c0-4.4.8-7.8,2.3-10.2s4-3.5,7.2-3.5a8.2,8.2,0,0,1,4.2,1,13.9,13.9,0,0,1,2.6,1.8V54.1ZM565.1,29.6V25a11.3,11.3,0,0,0-2.6-1.6,13.5,13.5,0,0,0-5.4-1.4h-3.3l-1.5.2v30c0,1.4-.8,2.6-2.5,3.6a11,11,0,0,1-5.9,1.4,8.1,8.1,0,0,1-3.8-.7,4.3,4.3,0,0,1-2-2,7,7,0,0,1-.7-3c-.1-1.2-.1-2.5-.1-3.8V29.3h0V25a11.3,11.3,0,0,0-2.6-1.6,13.5,13.5,0,0,0-5.4-1.4H526l-1.5.2h0v26c0,1.6,0,3.3.1,4.9a33.5,33.5,0,0,0,.6,4.7,11.6,11.6,0,0,0,4.1,6.9c2.1,1.7,5.4,2.6,9.8,2.6a18.3,18.3,0,0,0,8.8-1.8,16.4,16.4,0,0,0,4.4-3.4l.5.7a12.1,12.1,0,0,0,6,3.7,21,21,0,0,0,5.9.8v-.8h0Zm-67.7.7a13.2,13.2,0,0,0-3.1-5.4,14.4,14.4,0,0,0-5.7-3.2l-2.2-.5a40.2,40.2,0,0,0-6.3-.5,38.5,38.5,0,0,0-6.9.6,28.6,28.6,0,0,0-5.8,1.6l-.5.2h-.2l-.8.3a12.8,12.8,0,0,0-2.6,1.6l-.6.6v.2a13.5,13.5,0,0,0,2,8.1c2-1.1,4-2.1,6.1-3a18,18,0,0,1,7.1-1.3c2.9,0,4.9.5,6.2,1.5s1.9,2.7,1.9,5.1V38h-4.2c-2.2.1-4.7.4-7.4.8a23.5,23.5,0,0,0-7.5,2.4,15.3,15.3,0,0,0-5.7,4.7,12.6,12.6,0,0,0-2.3,7.7,14.5,14.5,0,0,0,1.3,6.5,11.1,11.1,0,0,0,3.4,4.2,13.3,13.3,0,0,0,4.6,2.3,17.7,17.7,0,0,0,5,.7,20,20,0,0,0,8.2-1.5,15.5,15.5,0,0,0,5-3.3l.7.9c1.5,1.6,4.3,3.2,8.4,3.7l2.5.2V37.9a20.1,20.1,0,0,0-.6-7.6ZM486.4,54a2.5,2.5,0,0,1-.7,1.6,7.7,7.7,0,0,1-1.9,1.6,10.3,10.3,0,0,1-2.8,1.2,12.7,12.7,0,0,1-3.4.5c-2.4,0-4-.6-5-1.8a6.7,6.7,0,0,1-1.5-4.4,6.3,6.3,0,0,1,1.1-3.8,7.6,7.6,0,0,1,2.9-2.4,12.3,12.3,0,0,1,4.1-1.3l4.6-.6h2.6V54ZM454.6,40.2a17.1,17.1,0,0,0-4.1-5.1,19.7,19.7,0,0,0-5.6-3.3l-6.1-2.4-4.3-1.7a25.5,25.5,0,0,1-3.7-1.9,8.5,8.5,0,0,1-2.5-2.5,6.4,6.4,0,0,1-.9-3.4,6.3,6.3,0,0,1,.9-3.5,6.1,6.1,0,0,1,2.4-2.1,11,11,0,0,1,3.2-1.1,20.7,20.7,0,0,1,3.5-.3,19.2,19.2,0,0,1,7.8,1.7,30.8,30.8,0,0,1,6.1,3.5,16.4,16.4,0,0,0,2.8-9.3V8.6h-.2a5.3,5.3,0,0,0-1.6-1.3A12.7,12.7,0,0,0,450.1,6h0a31.7,31.7,0,0,0-3.5-1.4,43.2,43.2,0,0,0-4.8-1.1,34.5,34.5,0,0,0-5.7-.5,29.6,29.6,0,0,0-8.5,1,21.4,21.4,0,0,0-7.1,3.5,15.9,15.9,0,0,0-4.9,5.7,16.7,16.7,0,0,0-1.8,7.9,17.3,17.3,0,0,0,1.5,7.7,14.1,14.1,0,0,0,4,5,19.9,19.9,0,0,0,5.5,3.2c2,.8,4,1.6,6,2.2l4.6,1.7a17.8,17.8,0,0,1,3.9,2,10.3,10.3,0,0,1,2.7,2.8,7.6,7.6,0,0,1,1,4.1,7.4,7.4,0,0,1-3.3,6.5,9.7,9.7,0,0,1-3.3,1.4,15.8,15.8,0,0,1-3.8.5,19.3,19.3,0,0,1-4.9-.6,41.3,41.3,0,0,1-4.2-1.4,19.9,19.9,0,0,1-3.5-2l-2.9-2.1a18.4,18.4,0,0,0-3,10.4v.2l.4.5,1.2,1,2.7,1.3,3.4,1.2a35.8,35.8,0,0,0,10.8,1.4,32.1,32.1,0,0,0,9.5-1.3,20.9,20.9,0,0,0,7.4-3.9,16.9,16.9,0,0,0,4.8-6.4,21.4,21.4,0,0,0,1.7-8.7A14.6,14.6,0,0,0,454.6,40.2Z"/></g></g></g></g></svg>